<svg xmlns="http://www.w3.org/2000/svg" width="44" height="44" viewBox="0 0 44 44">
  <defs>
    <style>
      .cls-1 {
        fill: #a0a9af;
        fill-rule: evenodd;
      }
    </style>
  </defs>
  <path id="close.svg" class="cls-1" d="M74.45,288.554l13.1-13.1M74.45,289.3a0.737,0.737,0,0,1-.528-0.219,0.746,0.746,0,0,1,0-1.055l13.1-13.1a0.746,0.746,0,1,1,1.055,1.055l-13.1,13.1A0.736,0.736,0,0,1,74.45,289.3Zm0-13.849,13.1,13.1m0,0.746a0.736,0.736,0,0,1-.528-0.219l-13.1-13.1a0.746,0.746,0,0,1,1.055-1.055l13.1,13.1a0.746,0.746,0,0,1,0,1.055A0.736,0.736,0,0,1,87.554,289.3ZM81,304.007a22.005,22.005,0,1,1,22-22A22.029,22.029,0,0,1,81,304.007Zm0-42.518A20.514,20.514,0,1,0,101.515,282,20.537,20.537,0,0,0,81,261.489Z" transform="translate(-59 -260)"/>
</svg>
